<svg xmlns="http://www.w3.org/2000/svg" xmlns:xlink="http://www.w3.org/1999/xlink" version="1.1" x="0px" y="0px" viewBox="0 0 24 30" enable-background="new 0 0 24 24" xml:space="preserve"><g><path d="M10.226,15.8v5.276c0,0.221,0.18,0.4,0.4,0.4s0.4-0.18,0.4-0.4V15.8c0-0.221-0.18-0.4-0.4-0.4S10.226,15.579,10.226,15.8z"/><path d="M13,23.524c0.221,0,0.4-0.18,0.4-0.4v-5.276c0-0.221-0.18-0.4-0.4-0.4s-0.4,0.18-0.4,0.4v5.276   C12.6,23.344,12.779,23.524,13,23.524z"/><path d="M14.974,16.73v5.277c0,0.221,0.18,0.4,0.4,0.4s0.4-0.18,0.4-0.4V16.73c0-0.221-0.18-0.4-0.4-0.4   S14.974,16.509,14.974,16.73z"/><path d="M14.131,4.024c0.075,0.063,0.167,0.095,0.258,0.095c0.113,0,0.227-0.049,0.306-0.143c0.143-0.169,0.121-0.421-0.048-0.563   l-1.275-1.075c-0.169-0.143-0.42-0.121-0.563,0.048c-0.143,0.169-0.121,0.421,0.048,0.563L14.131,4.024z"/><path d="M17.135,2.936c0.013,0,0.025-0.001,0.039-0.002c0.22-0.021,0.381-0.218,0.359-0.438l-0.162-1.659   c-0.021-0.219-0.2-0.376-0.438-0.359c-0.22,0.021-0.381,0.218-0.359,0.437l0.162,1.659C16.757,2.78,16.931,2.936,17.135,2.936z"/><path d="M20.345,3.91c0.117,0,0.233-0.052,0.312-0.15L21.7,2.459c0.139-0.172,0.111-0.424-0.062-0.562   c-0.171-0.139-0.425-0.11-0.562,0.062L20.033,3.26c-0.139,0.172-0.111,0.424,0.062,0.562C20.168,3.881,20.257,3.91,20.345,3.91z"/><path d="M23.994,6.285c-0.021-0.219-0.203-0.371-0.438-0.359l-1.632,0.159c-0.22,0.021-0.381,0.218-0.359,0.438   c0.021,0.206,0.194,0.361,0.398,0.361c0.013,0,0.025-0.001,0.039-0.002l1.632-0.159C23.855,6.701,24.016,6.505,23.994,6.285z"/><path d="M22.719,10.067l-1.27-1.083c-0.168-0.142-0.421-0.123-0.564,0.045c-0.143,0.168-0.123,0.421,0.045,0.564l1.27,1.083   c0.075,0.063,0.168,0.096,0.26,0.096c0.113,0,0.226-0.048,0.305-0.141C22.906,10.464,22.887,10.211,22.719,10.067z"/><path d="M11.691,12.868c0.699-0.075,1.246-0.668,1.246-1.387c0-0.77-0.626-1.396-1.395-1.396s-1.395,0.626-1.395,1.396   c0,0.212,0.048,0.414,0.134,0.594H0.404c-0.221,0-0.4,0.18-0.4,0.4s0.18,0.4,0.4,0.4h11.208   C11.64,12.876,11.666,12.873,11.691,12.868z M10.949,11.482c0-0.328,0.267-0.595,0.594-0.595s0.594,0.267,0.594,0.595   c0,0.327-0.267,0.594-0.594,0.594S10.949,11.809,10.949,11.482z"/><path d="M0.005,10.291c0,0.221,0.18,0.4,0.4,0.4H7.21c0.027,0,0.054-0.003,0.079-0.008c0.699-0.075,1.246-0.668,1.246-1.387   c0-0.769-0.626-1.395-1.395-1.395c-0.77,0-1.396,0.626-1.396,1.395c0,0.212,0.048,0.414,0.134,0.594H0.405   C0.185,9.891,0.005,10.07,0.005,10.291z M7.141,8.703c0.327,0,0.594,0.267,0.594,0.594S7.468,9.891,7.141,9.891   c-0.328,0-0.595-0.267-0.595-0.594S6.813,8.703,7.141,8.703z"/><path d="M8.535,15.447c0-0.719-0.547-1.312-1.246-1.387c-0.025-0.005-0.052-0.008-0.079-0.008H0.405c-0.221,0-0.4,0.18-0.4,0.4   s0.18,0.4,0.4,0.4h5.474c-0.086,0.18-0.134,0.382-0.134,0.594c0,0.769,0.626,1.395,1.396,1.395   C7.909,16.842,8.535,16.216,8.535,15.447z M6.546,15.447c0-0.327,0.267-0.594,0.595-0.594c0.327,0,0.594,0.267,0.594,0.594   s-0.267,0.594-0.594,0.594C6.813,16.041,6.546,15.775,6.546,15.447z"/><path d="M22.487,13.156c0-1.542-0.902-2.866-2.198-3.508c0.817-0.816,1.236-1.953,1.124-3.112   c-0.101-1.029-0.596-1.958-1.394-2.614c-0.799-0.657-1.798-0.958-2.835-0.864c-1.549,0.151-2.82,1.197-3.294,2.647   c-0.746-2.446-2.989-4.186-5.64-4.186c-3.225,0-5.821,2.525-5.911,5.749c-0.007,0.221,0.167,0.404,0.389,0.41   C2.73,7.679,2.734,7.679,2.738,7.679c0.216,0,0.394-0.172,0.399-0.39c0.078-2.787,2.323-4.97,5.112-4.97   c2.631,0,4.819,1.971,5.092,4.585c0.012,0.12,0.077,0.228,0.178,0.293c0.1,0.067,0.226,0.082,0.339,0.048   c0.234-0.073,0.483-0.111,0.721-0.111c1.376,0,2.495,1.119,2.495,2.496l-0.005,0.15c-0.007,0.132,0.051,0.258,0.154,0.338   c0.104,0.08,0.24,0.104,0.366,0.064c0.32-0.102,0.646-0.152,0.971-0.152c1.724,0,3.126,1.402,3.126,3.126   c0,1.726-1.402,3.129-3.126,3.129c-0.221,0-0.4,0.18-0.4,0.4s0.18,0.4,0.4,0.4C20.726,17.086,22.487,15.323,22.487,13.156z    M17.857,9.294c-0.169-1.661-1.574-2.961-3.278-2.961c-0.017,0-0.034,0.004-0.051,0.004c0.008-0.02,0.02-0.037,0.025-0.059   c0.277-1.319,1.366-2.294,2.71-2.424c1.687-0.17,3.189,1.074,3.354,2.76c0.099,1.009-0.308,2-1.085,2.652   c-0.027,0.023-0.044,0.052-0.063,0.079c-0.293-0.07-0.594-0.116-0.907-0.116C18.326,9.23,18.091,9.251,17.857,9.294z"/></g><text x="0" y="39" fill="#000000" font-size="5px" font-weight="bold" font-family="'Helvetica Neue', Helvetica, Arial-Unicode, Arial, Sans-serif">Created by Atif Arshad</text><text x="0" y="44" fill="#000000" font-size="5px" font-weight="bold" font-family="'Helvetica Neue', Helvetica, Arial-Unicode, Arial, Sans-serif">from the Noun Project</text></svg>